<svg xmlns="http://www.w3.org/2000/svg" width="225" height="155" viewBox="0 0 225 155">
  <g id="Option_A" data-name="Option A" transform="translate(-7591 -1142)">
    <path id="Path_22" data-name="Path 22" d="M0,0H225V155H0Z" transform="translate(7591 1142)" fill="rgba(255,255,255,0)"/>
    <g id="Group_4" data-name="Group 4" transform="translate(-25.627 -33.984)">
      <path id="Path_16" data-name="Path 16" d="M605.332,531.21l3.307-1.908,1.145.668,7.107,4.1v12.5l7.107,4.1v27.457h-9.412v-10.08H603.027v-9.491l2.305-1.336v8.521H616.89v10.08h4.8V552.005l-4.8-2.782v14.229h-2.305V549.223l-6.471,3.736-2.782,1.622-5.835,3.355-5.723,3.307v6.8H579.911V549.684l-5.644-3.259v-2.655l.191.111,5.453,3.148,2.305,1.32v17.393h9.253v-5.819l4.038-2.337,7.52-4.34V520.7l-9.253-5.342v40.573l-2.305,1.335V512.72l1.145-.668,6.01,3.466v-2.591l-6.01-3.466-6.01,3.466v2.591l2.56-1.478v2.655l-6.948,4.022v24.977l-2.305-1.32V519.381l4.4-2.544v-5.231l7.154-4.134v-4.913a1.145,1.145,0,1,1,2.289,0v4.929l7.154,4.118v5.231l4.42,2.544Zm9.253,15.374V535.407l-4.8-2.782v14.229l-2.305,1.335V532.625l-2.146,1.24v18.061Zm-147.22-12.1v-.6l-2.162-1.256v12.592l-2.289-1.336V532.625l-4.817,2.782v8.506l9.269,5.342v-14.77Zm0-12.751,1.145-.668v-5.183l3.259-1.908V509l7.154-4.118v-.064l1.145-.652,1.145.652v.064L488.367,509v4.944l3.259,1.876v5.246l1.145.668v12.289l6.216-3.577,9.269,5.342v2.655l-6.964-4.022-1.145-.652v31.988h8.108v2.305H497.842V533.769l-19.666,11.352v20.636h17.5v2.305h-19.81v-11.24L473.2,555.28l-5.835-3.37-2.782-1.606-6.487-3.736v19.19h9.269V554.565l2.305,1.335v12.162H455.807V546.568l-4.8,2.782v16.407h2.5v2.305h-4.8V548.015l7.107-4.1v-9.825l7.107-4.1,1.145-.668,3.307,1.908Zm11.558-14.213-3.72,2.146-1.145.668v2.321l1.145-.668,4.865-2.83,4.865,2.83v-.016l1.145.652v-2.289l-1.145-.668-3.72-2.146-1.145-.668Zm11.558,27.838V523.054l-9.269-5.342v20.112l-2.305,1.24V515.073l1.161-.668,9.253,5.342v-2.592l-9.253-5.342-9.269,5.405v2.528l5.819-3.355v2.655l-6.964,4.007V535.82l.016,4.976v9.794l6.2,3.593V543.8l3.8-2.194,2.846-1.653Z" transform="translate(7192.779 704.615)" fill="#022a7a" fill-rule="evenodd"/>
      <path id="Path_17" data-name="Path 17" d="M889.311,547.938v-2.655l-3.625-2.1-2.289-1.32v25.39H862.569V545.84l-2.305,1.335V569.56h25.422V545.84Zm-61.416-14.817h.032V515.9A10.441,10.441,0,0,1,836,505.776v4.245h2.305a10.443,10.443,0,0,1,10.4,10.4v.382l-11.542,6.661v15.183l2.305,1.32V528.8c3.084-1.781,6.153-3.561,9.237-5.342v9.666h.016v12.766l2.305-1.32V523.439l9.253,5.342v13.084l-7.52,4.34v.016l-4.038,2.321v18.728h-9.253v2.305h11.558v-19.7l5.723-3.307h-.016l5.835-3.37v-29.46c3.1-1.8,6.185-3.577,9.269-5.374v56.678h2.289V508.383l9.269,5.342V539.7l2.305,1.272v-28.57l-11.574-6.677-1.145-.747-1.145.747-11.558,6.661v13.752l-9.253-5.342v-.382a12.743,12.743,0,0,0-12.719-12.7V503.2a12.739,12.739,0,0,0-12.7,12.7v51.368H823.3v2.305h4.595V542.612l9.269,5.342v21.622h2.305V546.619l-2.305-1.32-5.453-3.148-3.816-2.194Z" transform="translate(6877.735 703.101)" fill="#f60" fill-rule="evenodd"/>
      <path id="Path_18" data-name="Path 18" d="M600.912,804.455l-9.444,5.453v-2.655l9.444-5.453ZM448.7,861.992V827.444h10.429l6.28,23.562,6.185-23.562h10.461v34.547h-6.471V834.805l-6.868,27.186h-6.709l-6.836-27.186v27.186Z" transform="translate(7192.779 451.974)" fill="#022a7a"/>
      <path id="Path_19" data-name="Path 19" d="M1049.361,963.1v12.7a9.951,9.951,0,0,1,11.781-2.893,6.626,6.626,0,0,1,2.766,2.162A7.7,7.7,0,0,1,1065.18,978a25.2,25.2,0,0,1,.35,4.976v14.674h-6.614V984.42a19.444,19.444,0,0,0-.382-4.992,3.284,3.284,0,0,0-1.335-1.669,4.168,4.168,0,0,0-2.385-.636,5.4,5.4,0,0,0-2.941.811,4.6,4.6,0,0,0-1.908,2.4,14.382,14.382,0,0,0-.6,4.77v12.544h-6.614V963.1Zm-33.816,36.185,7.568.922a2.605,2.605,0,0,0,.859,1.812,4.993,4.993,0,0,0,2.973.716,7.686,7.686,0,0,0,3.9-.779,3.3,3.3,0,0,0,1.32-1.67,10.175,10.175,0,0,0,.3-3.036v-3.657a8.962,8.962,0,0,1-7.488,4.054,9.228,9.228,0,0,1-8-4.261,14.621,14.621,0,0,1-2.305-8.394c0-4.2,1.017-7.393,3.036-9.619a9.769,9.769,0,0,1,7.52-3.307,9.189,9.189,0,0,1,7.663,4.07v-3.514h6.184v22.449a22.109,22.109,0,0,1-.731,6.614,8.129,8.129,0,0,1-2.035,3.45,9.378,9.378,0,0,1-3.53,1.956,18.778,18.778,0,0,1-5.565.715q-6.367,0-9.03-2.194a6.834,6.834,0,0,1-2.655-5.517C1015.529,999.873,1015.529,999.6,1015.545,999.285Zm5.914-14.674c0,2.655.509,4.611,1.542,5.835a4.785,4.785,0,0,0,3.8,1.844,5.278,5.278,0,0,0,4.1-1.892,8.264,8.264,0,0,0,1.685-5.628c0-2.576-.541-4.5-1.621-5.755a5.04,5.04,0,0,0-4.038-1.892,4.918,4.918,0,0,0-3.927,1.844C1021.968,980.206,1021.459,982.083,1021.459,984.61Zm-15.835-11.988h6.614v25.024h-6.614Zm0-9.523h6.614v6.121h-6.614ZM973.7,997.631V963.1h6.979v13.593h13.657V963.1h6.979v34.532h-6.979V982.544H980.679v15.088Z" transform="translate(6751.246 316.319)" fill="#f60" fill-rule="evenodd"/>
      <path id="Path_20" data-name="Path 20" d="M960.048,1208.943H961.7l3.847,5.055v-5.055h1.781v8.2H965.8l-3.975-5.215v5.215h-1.781Zm-5.246,8.347a4.667,4.667,0,0,1-1.749-.318,3.967,3.967,0,0,1-1.351-.874,4.055,4.055,0,0,1-.89-1.351,4.341,4.341,0,0,1-.318-1.685v-.016a4.334,4.334,0,0,1,.318-1.654,4.279,4.279,0,0,1,.89-1.351,4.464,4.464,0,0,1,1.367-.906,4.35,4.35,0,0,1,1.717-.334,5.808,5.808,0,0,1,1.844.286,4.045,4.045,0,0,1,1.383.843l-1.129,1.367a3.038,3.038,0,0,0-.477-.35,3.622,3.622,0,0,0-.477-.27,3.812,3.812,0,0,0-.556-.159,2.426,2.426,0,0,0-.636-.047,2.1,2.1,0,0,0-.922.207,2.547,2.547,0,0,0-.747.54,2.392,2.392,0,0,0-.509.811,2.757,2.757,0,0,0-.175.986v.032a2.98,2.98,0,0,0,.175,1.033,2.9,2.9,0,0,0,.509.827,2.279,2.279,0,0,0,.795.54,2.518,2.518,0,0,0,1,.191,2.948,2.948,0,0,0,1.7-.477v-1.177h-1.828v-1.558H958.3v3.561a6.814,6.814,0,0,1-1.494.922A4.966,4.966,0,0,1,954.8,1217.29Zm-7.806-8.347h1.812v8.2h-1.812Zm-4.658,8.315a5.538,5.538,0,0,1-1.844-.318,4.959,4.959,0,0,1-1.637-.986l1.065-1.288a5.046,5.046,0,0,0,1.161.731,3.045,3.045,0,0,0,1.288.27,1.593,1.593,0,0,0,.874-.207.653.653,0,0,0,.318-.572v-.016a1.391,1.391,0,0,0-.064-.318.619.619,0,0,0-.254-.238,1.911,1.911,0,0,0-.509-.239,6.435,6.435,0,0,0-.843-.254,8.458,8.458,0,0,1-1.113-.334,3.278,3.278,0,0,1-.859-.461,1.943,1.943,0,0,1-.541-.7,2.155,2.155,0,0,1-.191-1.018v-.016a2.458,2.458,0,0,1,.207-1.018,2.347,2.347,0,0,1,.588-.779,2.617,2.617,0,0,1,.906-.509,3.655,3.655,0,0,1,1.161-.175,5.1,5.1,0,0,1,1.669.27,5.413,5.413,0,0,1,1.383.779l-.938,1.367a6.23,6.23,0,0,0-1.081-.6,2.706,2.706,0,0,0-1.065-.223,1.3,1.3,0,0,0-.779.207.635.635,0,0,0-.27.525v.016a.711.711,0,0,0,.08.35.816.816,0,0,0,.27.27,2.7,2.7,0,0,0,.556.207q.334.111.875.254a7.4,7.4,0,0,1,1.1.366,3.152,3.152,0,0,1,.827.493,1.9,1.9,0,0,1,.509.684,2.4,2.4,0,0,1,.159.922v.016a2.57,2.57,0,0,1-.223,1.081,2.038,2.038,0,0,1-.62.8,2.514,2.514,0,0,1-.938.493A3.794,3.794,0,0,1,942.337,1217.258Zm-10.779-8.315h6.184v1.606h-4.388v1.654h3.863v1.606h-3.863v1.733h4.452v1.606h-6.248Zm-9.158,0h3.2a4.9,4.9,0,0,1,1.765.3,4.078,4.078,0,0,1,1.383.859,3.964,3.964,0,0,1,.89,1.3,4.06,4.06,0,0,1,.318,1.606v.016a4.1,4.1,0,0,1-.318,1.622,3.73,3.73,0,0,1-.89,1.3,4.111,4.111,0,0,1-1.383.875,4.9,4.9,0,0,1-1.765.318h-3.2Zm3.2,6.566a2.722,2.722,0,0,0,1-.175,2.076,2.076,0,0,0,.795-.509,2.737,2.737,0,0,0,.493-.763,2.517,2.517,0,0,0,.191-1v-.032a2.551,2.551,0,0,0-.191-.986,2.23,2.23,0,0,0-1.288-1.3,2.722,2.722,0,0,0-1-.175h-1.4v4.944Z" transform="translate(6794.39 109.681)" fill="#f60" fill-rule="evenodd"/>
      <path id="Path_21" data-name="Path 21" d="M607.959,476.377h1.653l3.847,5.056v-5.056h1.781v8.2h-1.526l-3.975-5.215v5.215h-1.781Zm-5.247,8.347a4.668,4.668,0,0,1-1.749-.318,4.479,4.479,0,0,1-1.367-.874,4.18,4.18,0,0,1-.874-1.351,4.338,4.338,0,0,1-.318-1.685v-.016a4.33,4.33,0,0,1,.318-1.653,4.275,4.275,0,0,1,.89-1.351,4.457,4.457,0,0,1,1.367-.906,4.315,4.315,0,0,1,1.717-.334,5.81,5.81,0,0,1,1.844.286,4.635,4.635,0,0,1,.731.35,4.69,4.69,0,0,1,.652.493L604.8,478.73a3.041,3.041,0,0,0-.477-.35,2.966,2.966,0,0,0-.493-.27,3.279,3.279,0,0,0-.541-.159,3.973,3.973,0,0,0-.636-.048,2.011,2.011,0,0,0-.922.207,2.549,2.549,0,0,0-.747.541,2.389,2.389,0,0,0-.509.811,2.554,2.554,0,0,0-.191.986v.032a2.758,2.758,0,0,0,.191,1.033,2.357,2.357,0,0,0,.509.827,2.438,2.438,0,0,0,1.8.731,2.947,2.947,0,0,0,1.7-.477v-1.176h-1.828v-1.558h3.561v3.561a6.465,6.465,0,0,1-1.494.922A4.966,4.966,0,0,1,602.713,484.724Zm-7.806-8.347h1.813v8.2h-1.812Zm-4.658,8.315a5.535,5.535,0,0,1-1.844-.318,4.954,4.954,0,0,1-1.637-.986l1.065-1.288a5.2,5.2,0,0,0,1.145.731,3.156,3.156,0,0,0,1.3.27,1.592,1.592,0,0,0,.874-.207.639.639,0,0,0,.3-.572v-.016a.772.772,0,0,0-.064-.318.635.635,0,0,0-.238-.238,1.9,1.9,0,0,0-.509-.238,6.416,6.416,0,0,0-.843-.254,8.423,8.423,0,0,1-1.113-.334,3.276,3.276,0,0,1-.859-.461,2.113,2.113,0,0,1-.557-.7,2.422,2.422,0,0,1-.191-1.017v-.016a2.31,2.31,0,0,1,.223-1.017,2.155,2.155,0,0,1,.588-.779,2.611,2.611,0,0,1,.906-.509,3.654,3.654,0,0,1,1.16-.175,4.941,4.941,0,0,1,1.654.27,5.252,5.252,0,0,1,1.4.779l-.938,1.367a6.224,6.224,0,0,0-1.081-.6,2.668,2.668,0,0,0-1.049-.223,1.322,1.322,0,0,0-.795.207.634.634,0,0,0-.27.525v.016a.711.711,0,0,0,.079.35.817.817,0,0,0,.27.27,2.693,2.693,0,0,0,.556.207q.334.111.859.254a7.218,7.218,0,0,1,1.113.366,3.8,3.8,0,0,1,.827.493,1.9,1.9,0,0,1,.509.684,2.592,2.592,0,0,1,.159.922v.016a2.529,2.529,0,0,1-.223,1.081,2.024,2.024,0,0,1-.62.795,2.72,2.72,0,0,1-.954.493A3.639,3.639,0,0,1,590.248,484.692Zm33.848-8.315h2.162V479.4h3.021v2.162h-3.021v3.021H624.1V481.56h-3.021V479.4H624.1Zm-12.7-29.683v5.167h-4.42v9.857a24.3,24.3,0,0,0,.127,3.482,1.48,1.48,0,0,0,.572.827,1.839,1.839,0,0,0,1.1.318,8.369,8.369,0,0,0,2.607-.62l.557,5.024a13.042,13.042,0,0,1-5.119.954,8.17,8.17,0,0,1-3.164-.588,4.467,4.467,0,0,1-2.051-1.51,5.952,5.952,0,0,1-.922-2.528,31.478,31.478,0,0,1-.207-4.563V451.861h-2.957l-.016-5.167h2.973v-4.865l6.5-3.768v8.633ZM639.423,471.7h-6.614V458.936a19.456,19.456,0,0,0-.429-5.231A3.662,3.662,0,0,0,631,451.861a3.89,3.89,0,0,0-2.289-.668,5.325,5.325,0,0,0-3.084.938,4.819,4.819,0,0,0-1.876,2.5,21.554,21.554,0,0,0-.509,5.755V471.7h-6.614V446.694h6.153v3.673a10.287,10.287,0,0,1,12.242-3.45,6.821,6.821,0,0,1,2.75,2.019,7.365,7.365,0,0,1,1.288,2.782,20.539,20.539,0,0,1,.366,4.452Zm10.445-114.1s1.653-.906,3.116-1.765a10.6,10.6,0,0,0,4.5-5.453c.064-.159.159-.27.286-.27,0,0,1.383-.636,1.32,1.335a1.878,1.878,0,0,0,.557,1.447c.477.477,1.288.795,2.528-.111a3.22,3.22,0,0,1,.6-.334,12.022,12.022,0,0,1,4.006-.97s-.35-1.558-2.448-1.335c0,0-1.193.127-1.193-.938,0,0-.191-.89.334-1.192a3.714,3.714,0,0,0,1.065-.763c.97-1.049,2.671-3.164,2.623-4.849,0,0-.254-1.955.938-1.812,0,0,1-.032,2.226,2.75a32.41,32.41,0,0,0,6.725,6.709s10.557,10.541,14.325,11.7a2.291,2.291,0,0,0,.382.079c.239.016.668.175.413,1.24,0,0-.143,1.192-3.371.97h0a.868.868,0,0,0-.715.318,3.388,3.388,0,0,1-.413.413l-3.037,2.432,6.63-1.32a2.274,2.274,0,0,1,1.176.079,4.223,4.223,0,0,0,.938.159,5.944,5.944,0,0,0,2.417-.843s6.693-1.113,6.614-3.641c-.016-.127.1-.223.238-.223.557-.016,1.7-.286,2.194.429,0,0,5.485,4.165,8.442,3.927,0,0-.493-.366-1.24-.906-.222-.159-.493-.286-.668-.429l-7.441-5.564s-.954-1.24-2.83-.159c-.556.318-1.86,1.685-2.5,1.812a23.582,23.582,0,0,1-4.42.191,4.487,4.487,0,0,1-2.878-1.113c-3.514-3.084-15.263-13.434-15.612-14.1,0,0-4.706-5.374-7.25-6.836a4.469,4.469,0,0,1-.763-.556c-.4-.35-1.24-.715-2.576.334a5.7,5.7,0,0,0-1.049,1.1c-1.3,1.781-6.423,8.6-7.886,8.474,0,0-2.655.1-4.022,1.447,0,0-5.453,5.326-10.795,5.31a11.192,11.192,0,0,0-1.638.143,4.461,4.461,0,0,1-2.909-.286s-10.986-5.008-14.341-7.218a7.048,7.048,0,0,1-1.32-1.145c-.715-.811-2.353-2.162-3.545.493a6.78,6.78,0,0,1-1.447,2.051c-2.591,2.432-9.269,7.234-11.479,7.361-.159,0-.318.032-.477.048a21.92,21.92,0,0,1-7.711-.254.877.877,0,0,1-.238-.064c-.238-.079-1.1-.27-2.814.97a4.6,4.6,0,0,1-.493.286c-1.192.636-5.946,3.5-7.17,6.041l-4.881,4.96s6.121-2.687,7.87-4.8a.5.5,0,0,1,.429-.175c1.049.064,4.706.223,5.533-.509a.328.328,0,0,0,.1-.159,4.366,4.366,0,0,0,.159-2.115,1.13,1.13,0,0,1,1.463-.986c2.115.493,6.614,1.367,7.139-.111a.81.81,0,0,1,.556-.509c.668-.191,1.844-.223,2.56,1.526a.548.548,0,0,0,.191.191,5.484,5.484,0,0,0,4.611-.238.086.086,0,0,1,.127.032c.143.191.35.874-.62,2.878l-2.178,3.227s7.091.1,11.526-7.44a20.958,20.958,0,0,1,1.431-2.083c1.049-1.367,2.925-3.355-.159-6.248a.241.241,0,0,0-.382.064c-.254.572-1.367.827-2.5.1,0,0-1.828-1.717,2.925-1.717a1.155,1.155,0,0,1,.811.318c1.415,1.431,7.329,6.359,12.353,8.553a8.243,8.243,0,0,0,5.485.382C643.683,357.376,649.757,355.914,649.868,357.6Z" transform="translate(7081.597 842.247)" fill="#022a7a"/>
    </g>
  </g>
</svg>
